<?xml version="1.0" standalone="no"?>
<!DOCTYPE svg PUBLIC "-//W3C//DTD SVG 20010904//EN"
 "http://www.w3.org/TR/2001/REC-SVG-20010904/DTD/svg10.dtd">
<svg version="1.0" xmlns="http://www.w3.org/2000/svg"
 width="512.000000pt" height="512.000000pt" viewBox="0 0 512.000000 512.000000"
 preserveAspectRatio="xMidYMid meet">
<metadata>
Created by potrace 1.14, written by Peter Selinger 2001-2017
</metadata>
<g transform="translate(0.000000,512.000000) scale(0.100000,-0.100000)"
fill="#000000" stroke="none">
<path d="M415 5110 c-22 -5 -60 -16 -85 -25 -150 -53 -285 -212 -319 -373 -8
-38 -11 -659 -11 -2155 0 -2299 -4 -2151 57 -2277 58 -121 214 -240 351 -269
75 -16 4229 -16 4304 0 189 39 358 208 397 397 16 75 16 4229 0 4304 -35 167
-166 316 -335 380 l-59 23 -2130 1 c-1172 1 -2148 -2 -2170 -6z m756 -1604
c52 -24 99 -74 123 -128 l21 -47 57 39 c113 75 241 107 398 96 367 -24 613
-225 734 -601 103 -318 108 -841 10 -1063 -67 -152 -155 -212 -312 -213 -98 0
-161 22 -207 72 -76 84 -92 156 -105 470 -10 236 -22 315 -64 397 -44 86 -104
122 -206 122 -131 0 -208 -82 -246 -264 -8 -39 -19 -173 -24 -300 -10 -255
-24 -327 -79 -403 -46 -64 -106 -88 -221 -88 -113 0 -153 17 -220 92 -132 148
-200 452 -200 893 0 520 92 833 272 924 48 25 61 27 143 24 58 -3 103 -10 126
-22z m3168 -80 c163 -83 199 -294 92 -531 -32 -70 -135 -233 -207 -327 -24
-31 -44 -59 -44 -63 0 -3 27 -41 59 -84 189 -248 261 -407 248 -549 -12 -123
-73 -208 -187 -261 -47 -21 -69 -25 -150 -25 -82 0 -104 4 -160 28 -84 37
-182 100 -298 193 l-93 75 -45 -39 c-244 -205 -377 -269 -543 -261 -100 5
-164 31 -221 88 -63 63 -75 100 -74 225 0 97 3 118 28 178 35 83 117 221 203
340 34 48 63 90 63 92 0 3 -31 44 -69 93 -96 120 -175 250 -203 330 -30 89
-32 240 -4 322 26 76 111 160 186 186 82 27 198 24 276 -7 76 -32 182 -103
280 -188 122 -106 112 -104 181 -40 120 110 242 192 342 230 114 42 250 40
340 -5z"/>
</g>
</svg>
